<?xml version="1.0" encoding="utf-8"?>
<!-- Generator: Adobe Illustrator 18.0.0, SVG Export Plug-In . SVG Version: 6.00 Build 0)  -->
<!DOCTYPE svg PUBLIC "-//W3C//DTD SVG 1.1//EN" "http://www.w3.org/Graphics/SVG/1.1/DTD/svg11.dtd">
<svg version="1.1" xmlns="http://www.w3.org/2000/svg" xmlns:xlink="http://www.w3.org/1999/xlink" x="0px" y="0px"
	 viewBox="0 0 48 48" enable-background="new 0 0 48 48" xml:space="preserve">
<g id="guides_1_" display="none">
	<rect display="inline" opacity="0.2" fill="#3EA3FF" width="8" height="48"/>
	<rect x="40" display="inline" opacity="0.2" fill="#3EA3FF" width="8" height="48"/>
	<rect x="8" display="inline" opacity="0.2" fill="#3EA3FF" width="32" height="8"/>
	<rect x="8" y="40" display="inline" opacity="0.2" fill="#3EA3FF" width="32" height="8"/>
</g>
<g id="Слой_2__x28_копия_x29_" display="none">
	<g display="inline">
		<path fill="none" stroke="#000000" stroke-width="2" stroke-linecap="round" stroke-linejoin="round" stroke-miterlimit="10" d="
			M30.1,24.6c0-3.7-3-6.7-6.7-6.7"/>
		<path fill="none" stroke="#000000" stroke-width="2" stroke-linecap="round" stroke-linejoin="round" stroke-miterlimit="10" d="
			M34.5,24.6c0-6.1-5-11.1-11.1-11.1"/>
		<path fill="none" stroke="#000000" stroke-width="2" stroke-linecap="round" stroke-linejoin="round" stroke-miterlimit="10" d="
			M39,24.6C39,16,32,9,23.4,9"/>
	</g>
	<text transform="matrix(1 0 0 1 11.9741 40)" display="inline" font-family="'GothamPro-Medium'" font-size="17.1369">3G</text>
</g>
<g id="Слой_2">
	<g>
		<g>
			<path d="M30.1,25.6c-0.6,0-1-0.4-1-1c0-3.1-2.5-5.7-5.7-5.7c-0.6,0-1-0.4-1-1s0.4-1,1-1c4.2,0,7.7,3.4,7.7,7.7
				C31.1,25.1,30.7,25.6,30.1,25.6z"/>
		</g>
		<g>
			<path d="M34.5,25.6c-0.6,0-1-0.4-1-1c0-5.6-4.5-10.1-10.1-10.1c-0.6,0-1-0.4-1-1s0.4-1,1-1c6.7,0,12.1,5.4,12.1,12.1
				C35.5,25.1,35.1,25.6,34.5,25.6z"/>
		</g>
		<g>
			<path d="M39,25.6c-0.6,0-1-0.4-1-1c0-8-6.5-14.6-14.6-14.6c-0.6,0-1-0.4-1-1s0.4-1,1-1C32.6,8,40,15.4,40,24.6
				C40,25.1,39.6,25.6,39,25.6z"/>
		</g>
	</g>
	<g>
		<path d="M12.7,38.1l1.5-1.4c0.9,1,1.8,1.6,3.2,1.6c1.2,0,2.1-0.7,2.1-1.9c0-1.2-1.1-1.9-2.8-1.9h-1l-0.3-1.3l3.2-3.4h-5.2V28h7.9
			v1.6L18,33c1.9,0.3,3.5,1.3,3.5,3.4c0,2.2-1.7,3.8-4.2,3.8C15.2,40.2,13.7,39.3,12.7,38.1z"/>
		<path d="M23.6,34c0-3.4,2.6-6.2,6.2-6.2c2.1,0,3.4,0.6,4.6,1.6L33,31c-0.9-0.8-1.8-1.3-3.4-1.3c-2.2,0-3.9,1.9-3.9,4.3
			c0,2.5,1.6,4.3,4.1,4.3c1.1,0,2.2-0.4,2.9-0.9v-2.2h-3.1v-1.8h5.1v5c-1.2,1-2.9,1.9-5,1.9C26,40.2,23.6,37.5,23.6,34z"/>
	</g>
</g>
</svg>
