<?xml version="1.0" encoding="utf-8"?>
<!-- Generator: Adobe Illustrator 18.0.0, SVG Export Plug-In . SVG Version: 6.00 Build 0)  -->
<!DOCTYPE svg PUBLIC "-//W3C//DTD SVG 1.1//EN" "http://www.w3.org/Graphics/SVG/1.1/DTD/svg11.dtd">
<svg version="1.1" xmlns="http://www.w3.org/2000/svg" xmlns:xlink="http://www.w3.org/1999/xlink" x="0px" y="0px"
	 viewBox="0 0 48 48" enable-background="new 0 0 48 48" xml:space="preserve">
<g id="guides_1_" display="none">
	<rect x="0" display="inline" opacity="0.2" fill="#3EA3FF" width="4" height="48"/>
	<rect x="44" display="inline" opacity="0.2" fill="#3EA3FF" width="4" height="48"/>
	<rect x="4" display="inline" opacity="0.2" fill="#3EA3FF" width="40" height="8"/>
	<rect x="4" y="40" display="inline" opacity="0.2" fill="#3EA3FF" width="40" height="8"/>
</g>
<g id="Слой_2">
	<g>
		<path d="M36.1,20.2c-0.5,0-1-0.4-1-1C34.9,14,30.7,10,25.5,10c-3.1,0-6.1,1.5-7.9,4.1c-0.3,0.5-0.9,0.6-1.4,0.2
			C15.7,14,15.6,13.4,16,13c2.2-3.1,5.7-5,9.5-5c6.3,0,11.4,4.9,11.6,11.1C37.1,19.7,36.7,20.2,36.1,20.2
			C36.1,20.2,36.1,20.2,36.1,20.2z"/>
	</g>
	<g>
		<path d="M14.8,33.8h-2.3C7.8,33.8,4,30,4,25.3c0-3.2,1.8-6.1,4.6-7.5c0-0.1,0-0.3,0-0.4c0-2.9,2.4-5.3,5.3-5.3
			c2.9,0,5.3,2.4,5.3,5.3c0,0.6-0.4,1-1,1s-1-0.4-1-1c0-1.8-1.5-3.3-3.3-3.3s-3.3,1.5-3.3,3.3c0,0.2,0,0.5,0.1,0.8
			c0.1,0.5-0.1,1-0.6,1.2c-2.5,1-4.1,3.3-4.1,6c0,3.6,2.9,6.5,6.5,6.5h2.3c0.6,0,1,0.4,1,1S15.3,33.8,14.8,33.8z"/>
	</g>
	<g>
		<path d="M36.3,33.8h-2.7c-0.6,0-1-0.4-1-1s0.4-1,1-1h2.7c3.1,0,5.7-2.5,5.7-5.7c0-3.1-2.5-5.7-5.7-5.7h-1.8c-0.6,0-1-0.4-1-1
			s0.4-1,1-1h1.8c4.2,0,7.7,3.4,7.7,7.7C44,30.3,40.6,33.8,36.3,33.8z"/>
	</g>
	<g>
		<g>
			<path d="M24,40c-0.3,0-0.5-0.1-0.7-0.3l-4-4c-0.4-0.4-0.4-1,0-1.4s1-0.4,1.4,0l2.3,2.3V21c0-0.6,0.4-1,1-1s1,0.4,1,1v18
				c0,0.4-0.2,0.8-0.6,0.9C24.3,40,24.1,40,24,40z"/>
		</g>
		<g>
			<path d="M24,40c-0.3,0-0.5-0.1-0.7-0.3c-0.4-0.4-0.4-1,0-1.4l4-4c0.4-0.4,1-0.4,1.4,0s0.4,1,0,1.4l-4,4C24.5,39.9,24.3,40,24,40z
				"/>
		</g>
		<g>
			<path d="M20,26c-0.3,0-0.5-0.1-0.7-0.3c-0.4-0.4-0.4-1,0-1.4l4-4c0.4-0.4,1-0.4,1.4,0s0.4,1,0,1.4l-4,4C20.5,25.9,20.3,26,20,26z
				"/>
		</g>
		<g>
			<path d="M28,26c-0.3,0-0.5-0.1-0.7-0.3l-4-4c-0.4-0.4-0.4-1,0-1.4s1-0.4,1.4,0l4,4c0.4,0.4,0.4,1,0,1.4C28.5,25.9,28.3,26,28,26z
				"/>
		</g>
	</g>
</g>
</svg>
