<?xml version="1.0" encoding="utf-8"?>
<!-- Generator: Adobe Illustrator 18.0.0, SVG Export Plug-In . SVG Version: 6.00 Build 0)  -->
<!DOCTYPE svg PUBLIC "-//W3C//DTD SVG 1.1//EN" "http://www.w3.org/Graphics/SVG/1.1/DTD/svg11.dtd">
<svg version="1.1" xmlns="http://www.w3.org/2000/svg" xmlns:xlink="http://www.w3.org/1999/xlink" x="0px" y="0px"
	 viewBox="0 0 48 48" enable-background="new 0 0 48 48" xml:space="preserve">
<g id="guides_1_" display="none">
	<rect x="0" display="inline" opacity="0.2" fill="#3EA3FF" width="4" height="48"/>
	<rect x="44" display="inline" opacity="0.2" fill="#3EA3FF" width="4" height="48"/>
	<rect x="4" display="inline" opacity="0.2" fill="#3EA3FF" width="40" height="8"/>
	<rect x="4" y="40" display="inline" opacity="0.2" fill="#3EA3FF" width="40" height="8"/>
</g>
<g id="Слой_2">
	<g>
		<path d="M26,32c-0.6,0-1-0.4-1-1V9c0-0.4,0.2-0.8,0.6-0.9C26,7.9,26.4,8,26.7,8.3l4,4c0.4,0.4,0.4,1,0,1.4s-1,0.4-1.4,0L27,11.4
			V31C27,31.6,26.6,32,26,32z"/>
	</g>
	<g>
		<path d="M22,40c-0.3,0-0.5-0.1-0.7-0.3l-4-4c-0.4-0.4-0.4-1,0-1.4s1-0.4,1.4,0l2.3,2.3V17c0-0.6,0.4-1,1-1s1,0.4,1,1v22
			c0,0.4-0.2,0.8-0.6,0.9C22.3,40,22.1,40,22,40z"/>
	</g>
</g>
</svg>
