<?xml version="1.0" encoding="utf-8"?>
<!-- Generator: Adobe Illustrator 18.0.0, SVG Export Plug-In . SVG Version: 6.00 Build 0)  -->
<!DOCTYPE svg PUBLIC "-//W3C//DTD SVG 1.1//EN" "http://www.w3.org/Graphics/SVG/1.1/DTD/svg11.dtd">
<svg version="1.1" xmlns="http://www.w3.org/2000/svg" xmlns:xlink="http://www.w3.org/1999/xlink" x="0px" y="0px"
	 viewBox="0 0 48 48" enable-background="new 0 0 48 48" xml:space="preserve">
<g id="guides_1_" display="none">
	<g id="_x33_px_margins" display="inline" opacity="0.2">
		<path fill="#3EA3FF" d="M42,6V42H6V6H42 M48,0H0V48H48V0L48,0z"/>
	</g>
</g>
<g id="test" display="none">
	<g id="circle_1_" display="inline" opacity="0.6">
		<circle fill="#D3D3D3" cx="24" cy="24" r="9"/>
	</g>
	<g id="circle" display="inline">
		<path fill="#545555" d="M24,16c4.4,0,8,3.6,8,8s-3.6,8-8,8s-8-3.6-8-8S19.6,16,24,16 M24,15c-5,0-9,4-9,9s4,9,9,9s9-4,9-9
			S29,15,24,15L24,15z"/>
	</g>
</g>
<g id="Слой_3">
	<g>
		<path d="M24,26c-0.6,0-1-0.4-1-1V7c0-0.6,0.4-1,1-1s1,0.4,1,1v18C25,25.6,24.6,26,24,26z"/>
	</g>
	<g>
		<path d="M24,42c-9.4,0-17-7.6-17-17c0-7,4.2-13.1,10.6-15.8c0.5-0.2,1.1,0,1.3,0.6c0.2,0.5,0,1.1-0.6,1.3C12.7,13.4,9,18.9,9,25
			c0,8.3,6.7,15,15,15c8.3,0,15-6.7,15-15c0-6.1-3.7-11.6-9.4-13.9c-0.5-0.2-0.8-0.8-0.6-1.3c0.2-0.5,0.8-0.8,1.3-0.6
			C36.8,11.9,41,18,41,25C41,34.4,33.4,42,24,42z"/>
	</g>
</g>
</svg>
