<?xml version="1.0" encoding="utf-8"?>
<!-- Generator: Adobe Illustrator 18.0.0, SVG Export Plug-In . SVG Version: 6.00 Build 0)  -->
<!DOCTYPE svg PUBLIC "-//W3C//DTD SVG 1.1//EN" "http://www.w3.org/Graphics/SVG/1.1/DTD/svg11.dtd">
<svg version="1.1" xmlns="http://www.w3.org/2000/svg" xmlns:xlink="http://www.w3.org/1999/xlink" x="0px" y="0px"
	 viewBox="0 0 48 48" enable-background="new 0 0 48 48" xml:space="preserve">
<g id="guides_1_" display="none">
	<rect x="0" display="inline" opacity="0.2" fill="#3EA3FF" width="4" height="48"/>
	<rect x="44" display="inline" opacity="0.2" fill="#3EA3FF" width="4" height="48"/>
	<rect x="4" display="inline" opacity="0.2" fill="#3EA3FF" width="40" height="8"/>
	<rect x="4" y="40" display="inline" opacity="0.2" fill="#3EA3FF" width="40" height="8"/>
</g>
<g id="Слой_3__x28_копия_x29_" display="none">
	
		<path display="inline" fill="none" stroke="#000000" stroke-width="2" stroke-linecap="round" stroke-linejoin="round" stroke-miterlimit="10" d="
		M32.1,29.4c-4.5-4.5-11.8-4.5-16.3,0"/>
	
		<path display="inline" fill="none" stroke="#000000" stroke-width="2" stroke-linecap="round" stroke-linejoin="round" stroke-miterlimit="10" d="
		M37.6,23.1c-7.5-7.5-19.6-7.5-27.1,0"/>
	
		<path display="inline" fill="none" stroke="#000000" stroke-width="2" stroke-linecap="round" stroke-linejoin="round" stroke-miterlimit="10" d="
		M43,16.7C32.5,6.2,15.5,6.2,5,16.7"/>
	<circle display="inline" cx="24" cy="37" r="3"/>
</g>
<g id="Слой_3">
	<g>
		<path d="M32.1,30.4c-0.3,0-0.5-0.1-0.7-0.3c-4.1-4.1-10.8-4.1-14.9,0c-0.4,0.4-1,0.4-1.4,0s-0.4-1,0-1.4c4.9-4.9,12.8-4.9,17.7,0
			c0.4,0.4,0.4,1,0,1.4C32.7,30.3,32.4,30.4,32.1,30.4z"/>
	</g>
	<g>
		<path d="M37.6,24.1c-0.3,0-0.5-0.1-0.7-0.3c-7.1-7.1-18.6-7.1-25.7,0c-0.4,0.4-1,0.4-1.4,0s-0.4-1,0-1.4c7.9-7.9,20.7-7.9,28.6,0
			c0.4,0.4,0.4,1,0,1.4C38.1,24,37.8,24.1,37.6,24.1z"/>
	</g>
	<g>
		<path d="M43,17.7c-0.3,0-0.5-0.1-0.7-0.3C37.4,12.5,30.9,9.9,24,9.9s-13.4,2.7-18.3,7.6c-0.4,0.4-1,0.4-1.4,0s-0.4-1,0-1.4
			C9.6,10.8,16.6,7.9,24,7.9s14.4,2.9,19.7,8.2c0.4,0.4,0.4,1,0,1.4C43.5,17.6,43.3,17.7,43,17.7z"/>
	</g>
	<g>
		<circle cx="24" cy="37" r="3"/>
	</g>
</g>
</svg>
