<?xml version="1.0" encoding="utf-8"?>
<!-- Generator: Adobe Illustrator 18.0.0, SVG Export Plug-In . SVG Version: 6.00 Build 0)  -->
<!DOCTYPE svg PUBLIC "-//W3C//DTD SVG 1.1//EN" "http://www.w3.org/Graphics/SVG/1.1/DTD/svg11.dtd">
<svg version="1.1" xmlns="http://www.w3.org/2000/svg" xmlns:xlink="http://www.w3.org/1999/xlink" x="0px" y="0px" fill='#336699'
	 viewBox="0 0 48 48" enable-background="new 0 0 48 48" xml:space="preserve">
<g id="guides_1_" display="none">
	<g id="_x33_px_margins" display="inline" opacity="0.2">
		<path fill="#3EA3FF" d="M42,6V42H6V6H42 M48,0H0V48H48V0L48,0z"/>
	</g>
</g>
<g id="garage">
	<rect x="13" y="24" width="22" height="2"/>
	<rect x="13" y="30" width="22" height="2"/>
	<rect x="13" y="36" width="22" height="2"/>
	<path d="M41.6,17.7l-17-11.3c-0.3-0.2-0.8-0.2-1.1,0l-17,11.3C6.2,17.9,6,18.2,6,18.5V40v1v1h1h2h1v-1v-1V21c0-0.6,0.4-1,1-1h26
		c0.6,0,1,0.4,1,1v19v1v1h1h2h1v-1v-1V18.5C42,18.2,41.8,17.9,41.6,17.7z M18,18h-1h-2h-1v-2h1h2h1V18z M26,18h-1h-2h-1v-2h1h2h1V18
		z M34,18h-1h-2h-1v-2h1h2h1V18z"/>
</g>
</svg>
