<?xml version="1.0" encoding="utf-8"?>
<!-- Generator: Adobe Illustrator 18.0.0, SVG Export Plug-In . SVG Version: 6.00 Build 0)  -->
<!DOCTYPE svg PUBLIC "-//W3C//DTD SVG 1.1//EN" "http://www.w3.org/Graphics/SVG/1.1/DTD/svg11.dtd">
<svg version="1.1" xmlns="http://www.w3.org/2000/svg" xmlns:xlink="http://www.w3.org/1999/xlink" x="0px" y="0px" fill='#336699'
	 viewBox="0 0 48 48" enable-background="new 0 0 48 48" xml:space="preserve">
<g id="guides_1_" display="none">
	<g id="_x33_px_margins" display="inline" opacity="0.2">
		<path fill="#3EA3FF" d="M42,6V42H6V6H42 M48,0H0V48H48V0L48,0z"/>
	</g>
</g>
<g id="barrier">
	<g>
		<rect x="6" y="33" width="8" height="2"/>
		<g>
			<polygon points="16.7,19 19.5,19 22.5,16 19.7,16 			"/>
			<polygon points="26.7,16 23.9,16 20.9,19 23.7,19 			"/>
			<polygon points="30.9,16 28.1,16 25.1,19 27.9,19 			"/>
			<path d="M41,16h-0.3l-3,3H41c0.6,0,1-0.4,1-1v-1C42,16.4,41.6,16,41,16z"/>
			<path d="M15.2,19l3-3H15c-0.6,0-1,0.4-1,1v1c0,0.6,0.4,1,1,1H15.2z"/>
			<polygon points="35.1,16 32.3,16 29.3,19 32.1,19 			"/>
			<polygon points="39.3,16 36.5,16 33.5,19 36.3,19 			"/>
		</g>
		<path d="M12,14H8c-0.6,0-1,0.4-1,1v18c0,0.6,0.4,1,1,1h4c0.6,0,1-0.4,1-1V15C13,14.4,12.6,14,12,14z M10,19c-0.6,0-1-0.4-1-1
			c0-0.6,0.4-1,1-1c0.6,0,1,0.4,1,1C11,18.6,10.6,19,10,19z"/>
	</g>
</g>
</svg>
