<?xml version="1.0" encoding="utf-8"?>
<!-- Generator: Adobe Illustrator 18.0.0, SVG Export Plug-In . SVG Version: 6.00 Build 0)  -->
<!DOCTYPE svg PUBLIC "-//W3C//DTD SVG 1.1//EN" "http://www.w3.org/Graphics/SVG/1.1/DTD/svg11.dtd">
<svg version="1.1" xmlns="http://www.w3.org/2000/svg" xmlns:xlink="http://www.w3.org/1999/xlink" x="0px" y="0px" fill='#336699'
	 viewBox="0 0 48 48" enable-background="new 0 0 48 48" xml:space="preserve">
<g id="guides_1_" display="none">
	<g id="_x33_px_margins" display="inline" opacity="0.2">
		<path fill="#3EA3FF" d="M42,6V42H6V6H42 M48,0H0V48H48V0L48,0z"/>
	</g>
</g>
<g id="conditioner">
	<g>
		<path d="M32,28c6,0,8-2,8-2c0-4-2-6-2-6c-2.8,1.8-5.9,2.8-8.5,3.4c1-0.5,2-1.2,3-2.2c4.2-4.2,4.2-7.1,4.2-7.1
			c-2.8-2.8-5.7-2.8-5.7-2.8c-0.6,3.2-2.2,6.2-3.7,8.4c0.4-1,0.6-2.2,0.6-3.7c0-6-2-8-2-8c-4,0-6,2-6,2c1.8,2.7,2.8,5.9,3.4,8.5
			c-0.5-1-1.2-2-2.2-3c-4.2-4.2-7.1-4.2-7.1-4.2c-2.8,2.8-2.8,5.7-2.8,5.7c3.2,0.6,6.2,2.2,8.4,3.7c-1-0.4-2.2-0.6-3.7-0.6
			c-6,0-8,2-8,2c0,4,2,6,2,6c2.7-1.8,5.9-2.8,8.5-3.4c-1,0.5-2,1.2-3,2.2c-4.2,4.2-4.2,7.1-4.2,7.1c2.8,2.8,5.7,2.8,5.7,2.8
			c0.6-3.2,2.2-6.2,3.7-8.4c-0.4,1-0.6,2.2-0.6,3.7c0,6,2,8,2,8c4,0,6-2,6-2c-1.8-2.8-2.8-5.9-3.4-8.5c0.5,1,1.2,2,2.2,3
			c4.2,4.2,7.1,4.2,7.1,4.2c2.8-2.8,2.8-5.7,2.8-5.7c-3.2-0.6-6.2-2.2-8.4-3.7C29.3,27.8,30.5,28,32,28L32,28z M32,28"/>
	</g>
</g>
</svg>
