<?xml version="1.0" encoding="utf-8"?>
<!-- Generator: Adobe Illustrator 18.0.0, SVG Export Plug-In . SVG Version: 6.00 Build 0)  -->
<!DOCTYPE svg PUBLIC "-//W3C//DTD SVG 1.1//EN" "http://www.w3.org/Graphics/SVG/1.1/DTD/svg11.dtd">
<svg version="1.1" xmlns="http://www.w3.org/2000/svg" xmlns:xlink="http://www.w3.org/1999/xlink" x="0px" y="0px" fill='#336699'
	 viewBox="0 0 48 48" enable-background="new 0 0 48 48" xml:space="preserve">
<g id="guides_1_" display="none">
	<g id="_x33_px_margins" display="inline" opacity="0.2">
		<path fill="#3EA3FF" d="M42,6V42H6V6H42 M48,0H0V48H48V0L48,0z"/>
	</g>
</g>
<g id="tv">
	<g>
		<path d="M38.7,17c-2.8-0.4-5.7-0.7-8.8-0.9L35,11l-2-2l-7,7c-0.7,0-1.3,0-2,0l-8-8l-2,2l6.1,6.1c-3.8,0.1-7.4,0.5-10.7,0.9
			C8.5,20.4,8,24.1,8,28s0.5,7.6,1.3,11c4.5,0.6,9.4,1,14.7,1s10.2-0.4,14.7-1c0.9-3.4,1.3-7.1,1.3-11S39.5,20.4,38.7,17L38.7,17z
			 M35,35.3c-3.4,0.4-7.1,0.7-11,0.7c-3.9,0-7.6-0.2-11-0.7c-0.6-2.2-1-4.7-1-7.3s0.4-5.1,1-7.3c3.4-0.4,7.1-0.7,11-0.7
			c3.9,0,7.6,0.2,11,0.7c0.6,2.2,1,4.7,1,7.3S35.6,33.1,35,35.3L35,35.3z M35,35.3"/>
	</g>
</g>
</svg>
