<?xml version="1.0" encoding="utf-8"?>
<!-- Generator: Adobe Illustrator 18.0.0, SVG Export Plug-In . SVG Version: 6.00 Build 0)  -->
<!DOCTYPE svg PUBLIC "-//W3C//DTD SVG 1.1//EN" "http://www.w3.org/Graphics/SVG/1.1/DTD/svg11.dtd">
<svg version="1.1" id="_x32_20V" xmlns="http://www.w3.org/2000/svg" xmlns:xlink="http://www.w3.org/1999/xlink" x="0px" y="0px" fill="#993333"
	 viewBox="0 0 48 48" enable-background="new 0 0 48 48" xml:space="preserve">
<g>
	<path d="M24.8,13.9L31,7.7c0.9-0.9,0.9-2.2,0-3.1c-0.9-0.9-2.2-0.9-3.1,0l-6.2,6.2c-0.9,0.9-0.9,2.2,0,3.1
		C22.5,14.8,23.9,14.8,24.8,13.9z"/>
	<path d="M43.4,17c-0.9-0.9-2.2-0.9-3.1,0l-6.2,6.2c-0.9,0.9-0.9,2.2,0,3.1v0c0.9,0.9,2.2,0.9,3.1,0l6.2-6.2
		C44.2,19.3,44.2,17.9,43.4,17z"/>
	<path d="M15.5,10.8c-0.9-0.9-2.2-0.9-3.1,0c-0.9,0.9-0.9,2.2,0,3.1l0.8,0.8C7.5,21.5,6,30,9.5,35.4l-4.8,4.8
		c-0.9,0.9-0.9,2.2,0,3.1c0.9,0.9,2.2,0.9,3.1,0l4.8-4.8c5.4,3.5,13.9,2,20.7-3.8l0.8,0.8c0.9,0.9,2.2,0.9,3.1,0
		c0.9-0.9,0.9-2.2,0-3.1L15.5,10.8z"/>
</g>
</svg>
