<?xml version="1.0" encoding="utf-8"?>
<!-- Generator: Adobe Illustrator 18.0.0, SVG Export Plug-In . SVG Version: 6.00 Build 0)  -->
<!DOCTYPE svg PUBLIC "-//W3C//DTD SVG 1.1//EN" "http://www.w3.org/Graphics/SVG/1.1/DTD/svg11.dtd">
<svg version="1.1" xmlns="http://www.w3.org/2000/svg" xmlns:xlink="http://www.w3.org/1999/xlink" x="0px" y="0px" fill='#336699'
	 viewBox="0 0 48 48" enable-background="new 0 0 48 48" xml:space="preserve">
<g id="guides_1_" display="none">
	<g id="_x33_px_margins" display="inline" opacity="0.2">
		<path fill="#3EA3FF" d="M42,6V42H6V6H42 M48,0H0V48H48V0L48,0z"/>
	</g>
</g>
<g id="switch">
	<g>
		<path d="M23.9,24.1c0-4.9,3.8-8.9,8.7-9.1v0H17.1c-5,0-9.1,4.1-9.1,9.1s4.1,9.1,9.1,9.1h15.5v0C27.8,32.9,23.9,29,23.9,24.1
			L23.9,24.1z M23.9,24.1"/>
		<path d="M33,17.1c-3.8,0-7,3.1-7,7s3.1,7,7,7c3.8,0,7-3.1,7-7S36.9,17.1,33,17.1L33,17.1z M33,17.1"/>
	</g>
</g>
</svg>
