<?xml version="1.0" encoding="utf-8"?>
<!-- Generator: Adobe Illustrator 18.0.0, SVG Export Plug-In . SVG Version: 6.00 Build 0)  -->
<!DOCTYPE svg PUBLIC "-//W3C//DTD SVG 1.1//EN" "http://www.w3.org/Graphics/SVG/1.1/DTD/svg11.dtd">
<svg version="1.1" xmlns="http://www.w3.org/2000/svg" xmlns:xlink="http://www.w3.org/1999/xlink" x="0px" y="0px" fill='#336699'
	 viewBox="0 0 48 48" enable-background="new 0 0 48 48" xml:space="preserve">
<g id="guides_1_" display="none">
	<g id="_x33_px_margins" display="inline" opacity="0.2">
		<path fill="#3EA3FF" d="M42,6V42H6V6H42 M48,0H0V48H48V0L48,0z"/>
	</g>
</g>
<g id="siren">
	<g>
		<path d="M16,34.9h15.8V23.4c0-4-3.3-7.3-7.3-7.3h-1.2c-4,0-7.3,3.3-7.3,7.3V34.9z M16,34.9"/>
		<g>
			<defs>
				<rect id="SVGID_1_" x="10" y="8" width="28" height="32.2"/>
			</defs>
			<clipPath id="SVGID_2_">
				<use xlink:href="#SVGID_1_"  overflow="visible"/>
			</clipPath>
			<path clip-path="url(#SVGID_2_)" d="M32.7,36.2H15.1c-0.4,0-0.7,0.3-0.7,0.7v2.6c0,0.4,0.3,0.7,0.7,0.7h17.6
				c0.4,0,0.7-0.3,0.7-0.7v-2.6C33.4,36.5,33.1,36.2,32.7,36.2L32.7,36.2z M32.7,36.2"/>
			<path clip-path="url(#SVGID_2_)" d="M10.3,16.2l4,2.8c0.1,0.1,0.3,0.1,0.4,0.1c0.2,0,0.4-0.1,0.6-0.3l0.7-1.1
				c0.2-0.3,0.1-0.7-0.2-1l-4-2.8c-0.1-0.1-0.3-0.1-0.4-0.1c-0.2,0-0.4,0.1-0.6,0.3l-0.7,1.1C9.9,15.5,10,16,10.3,16.2L10.3,16.2z
				 M10.3,16.2"/>
			<path clip-path="url(#SVGID_2_)" d="M32.6,18.8c0.1,0.2,0.4,0.3,0.6,0.3c0.1,0,0.3,0,0.4-0.1l4.1-2.7c0.3-0.2,0.4-0.6,0.2-1
				l-0.7-1.1C37,14.1,36.8,14,36.6,14c-0.1,0-0.3,0-0.4,0.1l-4.1,2.7c-0.3,0.2-0.4,0.6-0.2,1L32.6,18.8z M32.6,18.8"/>
		</g>
		<path d="M22.9,14.1c0.1,0.1,0.3,0.1,0.4,0.1h1.3c0.2,0,0.3,0,0.4-0.1c0.2-0.1,0.3-0.3,0.3-0.6V8.7C25.3,8.3,25,8,24.6,8h-1.3
			c-0.4,0-0.7,0.3-0.7,0.7v4.9C22.6,13.8,22.7,14,22.9,14.1L22.9,14.1z M22.9,14.1"/>
	</g>
</g>
</svg>
