<?xml version="1.0" encoding="utf-8"?>
<!-- Generator: Adobe Illustrator 18.0.0, SVG Export Plug-In . SVG Version: 6.00 Build 0)  -->
<!DOCTYPE svg PUBLIC "-//W3C//DTD SVG 1.1//EN" "http://www.w3.org/Graphics/SVG/1.1/DTD/svg11.dtd">
<svg version="1.1" xmlns="http://www.w3.org/2000/svg" xmlns:xlink="http://www.w3.org/1999/xlink" x="0px" y="0px" fill='#336699'
	 viewBox="0 0 48 48" enable-background="new 0 0 48 48" xml:space="preserve">
<g id="guides_1_" display="none">
	<g id="_x33_px_margins" display="inline" opacity="0.2">
		<path fill="#3EA3FF" d="M42,6V42H6V6H42 M48,0H0V48H48V0L48,0z"/>
	</g>
</g>
<g id="webcam">
	<g>
		<path d="M19.9,20.2c0.3,0.1,0.6,0.2,1,0.2c1.7,0,3.1-1.4,3.1-3.1c0-0.4-0.1-0.7-0.2-1C21.7,16.3,20,18,19.9,20.2L19.9,20.2z
			 M19.9,20.2"/>
		<path d="M20.7,7.4c0.9,0.7,2.1,1.1,3.3,1.1c1.2,0,2.4-0.4,3.3-1.1C26.2,7.1,25.1,7,24,7C22.8,7,21.8,7.1,20.7,7.4L20.7,7.4z
			 M20.7,7.4"/>
		<g>
			<path d="M37.2,20.3c0-5.4-3.2-10.1-7.8-12.1c-1.4,1.5-3.3,2.4-5.4,2.4c-2.1,0-4.1-0.9-5.4-2.4c-4.6,2.1-7.8,6.7-7.8,12.1
				c0,7.3,6,13.3,13.3,13.3C31.3,33.6,37.2,27.7,37.2,20.3L37.2,20.3z M17.9,20.3c0-3.4,2.7-6.2,6.1-6.2c3.4,0,6.1,2.8,6.1,6.2
				c0,3.4-2.7,6.2-6.1,6.2C20.6,26.5,17.9,23.7,17.9,20.3L17.9,20.3z M17.9,20.3"/>
			<path d="M39.5,39.7c-2.3-2.3-4.6-4.7-6.8-6.8c-2.5,1.7-5.5,2.8-8.8,2.8c-3.3,0-6.3-1-8.8-2.8c-2.2,2.2-4.7,4.7-6.8,6.9
				c-0.4,0.4-0.5,0.9-0.3,1.4c0.2,0.5,0.7,0.8,1.2,0.8h29.4c0,0,0,0,0,0c0.7,0,1.3-0.6,1.3-1.3C40,40.3,39.8,39.9,39.5,39.7
				L39.5,39.7z M39.5,39.7"/>
		</g>
	</g>
</g>
</svg>
