<?xml version="1.0" encoding="utf-8"?>
<!-- Generator: Adobe Illustrator 18.0.0, SVG Export Plug-In . SVG Version: 6.00 Build 0)  -->
<!DOCTYPE svg PUBLIC "-//W3C//DTD SVG 1.1//EN" "http://www.w3.org/Graphics/SVG/1.1/DTD/svg11.dtd">
<svg version="1.1" xmlns="http://www.w3.org/2000/svg" xmlns:xlink="http://www.w3.org/1999/xlink" x="0px" y="0px" fill='#336699'
	 viewBox="0 0 48 48" enable-background="new 0 0 48 48" xml:space="preserve">
<g id="guides_1_" display="none">
	<g id="_x33_px_margins" display="inline" opacity="0.2">
		<path fill="#3EA3FF" d="M42,6V42H6V6H42 M48,0H0V48H48V0L48,0z"/>
	</g>
</g>
<g id="camera">
	<g>
		<g>
			<path d="M37.4,15.6L24.6,8.2c-0.4-0.2-0.8-0.2-1.2,0l-12.8,7.4c-0.4,0.2-0.6,0.6-0.6,1v14.8c0,0.4,0.2,0.8,0.6,1l12.8,7.4
				c0.2,0.1,0.4,0.2,0.6,0.2c0.2,0,0.4-0.1,0.6-0.2l12.8-7.4c0.4-0.2,0.6-0.6,0.6-1V16.6C38,16.2,37.8,15.8,37.4,15.6L37.4,15.6z
				 M35.6,30.7L24,37.4l-11.6-6.7V17.3L24,10.6l11.6,6.7V30.7z M35.6,30.7"/>
		</g>
		<path d="M17.3,16.7l6.1,3.5c0,0,0.1,0,0.1,0l1,0.6c0.2,0.1,0.3,0.1,0.5,0.1c0.2,0,0.3,0,0.5-0.1c0.3-0.2,0.5-0.5,0.5-0.9v-6
			L24,12.9L17.3,16.7z M17.3,16.7"/>
		<path d="M27.5,23.8c0.2,0.1,0.3,0.1,0.5,0.1c0.2,0,0.3,0,0.5-0.1l5.2-3v-2.4L27,14.6V23C27,23.3,27.2,23.6,27.5,23.8L27.5,23.8z
			 M27.5,23.8"/>
		<path d="M26.4,27.8l5.2,3l2.1-1.2v-7.7l-6.2,3.6c0,0-0.1,0-0.1,0.1l-1,0.6c-0.3,0.2-0.5,0.5-0.5,0.9
			C25.9,27.3,26.1,27.6,26.4,27.8L26.4,27.8z M26.4,27.8"/>
		<path d="M22.4,27.1c-0.3,0.2-0.5,0.5-0.5,0.9v6l2.1,1.2l6.6-3.8l-7.2-4.2C23.1,27,22.7,27,22.4,27.1L22.4,27.1z M22.4,27.1"/>
		<path d="M20.5,24.2c-0.3-0.2-0.7-0.2-1,0l-5.2,2.9v2.5l6.7,3.9V25C21,24.7,20.8,24.3,20.5,24.2L20.5,24.2z M20.5,24.2"/>
		<path d="M21.6,20.2l-5.2-3l-2.1,1.2v7.6l7.2-4.1c0.3-0.2,0.5-0.5,0.5-0.9C22.1,20.7,21.9,20.4,21.6,20.2L21.6,20.2z M21.6,20.2"/>
	</g>
</g>
</svg>
