<?xml version="1.0" encoding="utf-8"?>
<!-- Generator: Adobe Illustrator 18.0.0, SVG Export Plug-In . SVG Version: 6.00 Build 0)  -->
<!DOCTYPE svg PUBLIC "-//W3C//DTD SVG 1.1//EN" "http://www.w3.org/Graphics/SVG/1.1/DTD/svg11.dtd">
<svg version="1.1" xmlns="http://www.w3.org/2000/svg" xmlns:xlink="http://www.w3.org/1999/xlink" x="0px" y="0px" fill='#336699'
	 viewBox="0 0 48 48" enable-background="new 0 0 48 48" xml:space="preserve">
<g id="guides_1_" display="none">
	<g id="_x33_px_margins" display="inline" opacity="0.2">
		<path fill="#3EA3FF" d="M42,6V42H6V6H42 M48,0H0V48H48V0L48,0z"/>
	</g>
</g>
<g id="gate">
	<g display="none">
		<path display="inline" d="M7,19L7,19c-0.6,0-1,0.4-1,1v10c0,0.6,0.4,1,1,1h0c0.6,0,1-0.4,1-1V20C8,19.4,7.6,19,7,19z"/>
		<path display="inline" d="M41,19L41,19c-0.6,0-1,0.4-1,1v10c0,0.6,0.4,1,1,1l0,0c0.6,0,1-0.4,1-1V20C42,19.4,41.6,19,41,19z"/>
		<path display="inline" d="M19.8,34l-10-2.5C9.3,31.4,9,31,9,30.5V19.9c0-0.4,0.2-0.7,0.6-0.9l10-5c0.7-0.3,1.4,0.2,1.4,0.9V33
			C21,33.7,20.4,34.1,19.8,34z"/>
		<path display="inline" d="M28.2,34l10-2.5c0.4-0.1,0.8-0.5,0.8-1V19.9c0-0.4-0.2-0.7-0.6-0.9l-10-5c-0.7-0.3-1.4,0.2-1.4,0.9V33
			C27,33.7,27.6,34.1,28.2,34z"/>
	</g>
	<g>
		<path d="M42,27v-3h-3v-8h-3v3.4l-2-2V11h-3v3.4l-2-2V6h-3v33v3h3h2h3h2h3h3v-3h-3V27H42z M29,39V16.6l2,2V39H29z M36,39h-2V21.6
			l2,2V24v3V39z"/>
		<path d="M19,12.4l-2,2V11h-3v6.4l-2,2V16H9v8H6v3h3v12H6v3h3h3h2h3h2h3v-3V6h-3V12.4z M12,39V27v-3v-0.4l2-2V39H12z M17,39V18.6
			l2-2V39H17z"/>
	</g>
</g>
</svg>
