<?xml version="1.0" encoding="utf-8"?>
<!-- Generator: Adobe Illustrator 18.0.0, SVG Export Plug-In . SVG Version: 6.00 Build 0)  -->
<!DOCTYPE svg PUBLIC "-//W3C//DTD SVG 1.1//EN" "http://www.w3.org/Graphics/SVG/1.1/DTD/svg11.dtd">
<svg version="1.1" xmlns="http://www.w3.org/2000/svg" xmlns:xlink="http://www.w3.org/1999/xlink" x="0px" y="0px"
	 viewBox="0 0 48 48" enable-background="new 0 0 48 48" xml:space="preserve">
<g id="guides_1_" display="none">
	<g id="_x33_px_margins" display="inline" opacity="0.2">
		<path fill="#3EA3FF" d="M42,6V42H6V6H42 M48,0H0V48H48V0L48,0z"/>
	</g>
</g>
<g id="alarm">
	<g>
		<path d="M37.6,30.1l-2.5-2.5c-0.8-0.8-1.3-2-1.3-3.2v-5.7c0-4.9-3.3-9.2-7.9-10.2c0-0.1,0-0.2,0-0.3c0-1.2-1-2.3-2.3-2.3
			c-1.2,0-2.2,1-2.2,2.3c0,0.1,0,0.2,0,0.3c-4.5,1-7.9,5-7.9,9.9v6c0,1.2-0.5,2.3-1.3,3.2l-2.5,2.5c-0.4,0.4-0.7,1-0.7,1.6v2.4h29.2
			v-2.4C38.2,31.1,38,30.5,37.6,30.1L37.6,30.1z M37.6,30.1"/>
		<path d="M19.1,37.5c0,2.5,2,4.5,4.5,4.5c2.5,0,4.5-2,4.5-4.5v-1.1h-9V37.5z M19.1,37.5"/>
	</g>
</g>
</svg>
