<?xml version="1.0" encoding="utf-8"?>
<!-- Generator: Adobe Illustrator 18.0.0, SVG Export Plug-In . SVG Version: 6.00 Build 0)  -->
<!DOCTYPE svg PUBLIC "-//W3C//DTD SVG 1.1//EN" "http://www.w3.org/Graphics/SVG/1.1/DTD/svg11.dtd">
<svg version="1.1" xmlns="http://www.w3.org/2000/svg" xmlns:xlink="http://www.w3.org/1999/xlink" x="0px" y="0px"
	 viewBox="0 0 48 48" enable-background="new 0 0 48 48" xml:space="preserve">
<g id="guides_1_" display="none">
	<g id="_x33_px_margins" display="inline" opacity="0.2">
		<path fill="#3EA3FF" d="M42,6V42H6V6H42 M48,0H0V48H48V0L48,0z"/>
	</g>
</g>
<g id="test" display="none">
	<g id="circle_1_" display="inline" opacity="0.6">
		<circle fill="#D3D3D3" cx="24" cy="24" r="9"/>
	</g>
	<g id="circle" display="inline">
		<path fill="#545555" d="M24,16c4.4,0,8,3.6,8,8s-3.6,8-8,8s-8-3.6-8-8S19.6,16,24,16 M24,15c-5,0-9,4-9,9s4,9,9,9s9-4,9-9
			S29,15,24,15L24,15z"/>
	</g>
</g>
<g id="Слой_3">
	
		<polyline fill="none" stroke="#000000" stroke-width="2" stroke-linecap="round" stroke-linejoin="round" stroke-miterlimit="10" points="
		7,16 24,33 41,16 	"/>
</g>
</svg>
