<?xml version="1.0" encoding="utf-8"?>
<!-- Generator: Adobe Illustrator 18.0.0, SVG Export Plug-In . SVG Version: 6.00 Build 0)  -->
<!DOCTYPE svg PUBLIC "-//W3C//DTD SVG 1.1//EN" "http://www.w3.org/Graphics/SVG/1.1/DTD/svg11.dtd">
<svg version="1.1" id="AKB" xmlns="http://www.w3.org/2000/svg" xmlns:xlink="http://www.w3.org/1999/xlink" x="0px" y="0px" fill="#339968"
	 viewBox="0 0 48 48" enable-background="new 0 0 48 48" xml:space="preserve">
<path d="M41,14h-2v-3c0-1.1-0.9-2-2-2h-6c-1.1,0-2,0.9-2,2v3H19v-3c0-1.1-0.9-2-2-2h-6c-1.1,0-2,0.9-2,2v3H7c-1.7,0-3,1.3-3,3v18
	c0,1.7,1.3,3,3,3h34c1.7,0,3-1.3,3-3V17C44,15.3,42.7,14,41,14z M31,11h6l0,3h-6V11z M11,11h6l0,3h-6V11z M18,27h-8
	c-0.6,0-1-0.4-1-1c0-0.6,0.4-1,1-1h8c0.6,0,1,0.4,1,1C19,26.6,18.6,27,18,27z M38,27h-3v3c0,0.6-0.4,1-1,1s-1-0.4-1-1v-3h-3
	c-0.6,0-1-0.4-1-1c0-0.6,0.4-1,1-1h3v-3c0-0.6,0.4-1,1-1s1,0.4,1,1v3h3c0.6,0,1,0.4,1,1C39,26.6,38.6,27,38,27z"/>
</svg>
