<?xml version="1.0" encoding="utf-8"?>
<!-- Generator: Adobe Illustrator 18.0.0, SVG Export Plug-In . SVG Version: 6.00 Build 0)  -->
<!DOCTYPE svg PUBLIC "-//W3C//DTD SVG 1.1//EN" "http://www.w3.org/Graphics/SVG/1.1/DTD/svg11.dtd">
<svg version="1.1" xmlns="http://www.w3.org/2000/svg" xmlns:xlink="http://www.w3.org/1999/xlink" x="0px" y="0px"
	 viewBox="0 0 48 48" enable-background="new 0 0 48 48" xml:space="preserve">
<g id="guides_1_" display="none">
	<g id="_x33_px_margins" display="inline" opacity="0.2">
		<path fill="#3EA3FF" d="M42,6V42H6V6H42 M48,0H0V48H48V0L48,0z"/>
	</g>
</g>
<g id="lamp">
	<g>
		<path d="M29.6,21.3l-3,8.3h4.3c3.7-2.2,6.2-6.3,6.2-10.9C37,11.7,31.3,6,24.3,6l0,0c-7,0-12.7,5.7-12.7,12.7
			c0,4.6,2.5,8.7,6.2,10.9h4.3l-3-8.3 M20.7,20.7l3.3,8.9h0.6l3.3-8.9 M24.3,6"/>
		<path d="M18.9,38.8c0,0.5,0.4,0.9,0.9,0.9h2v0.5c0,1,0.8,1.8,1.8,1.8h1.3c1,0,1.8-0.8,1.8-1.8v-0.5h2c0.5,0,0.9-0.4,0.9-0.9V31
			H18.9V38.8z M18.9,38.8"/>
	</g>
</g>
</svg>
