<?xml version="1.0" encoding="utf-8"?>
<!-- Generator: Adobe Illustrator 23.0.1, SVG Export Plug-In . SVG Version: 6.00 Build 0)  -->
<svg version="1.1" xmlns="http://www.w3.org/2000/svg" xmlns:xlink="http://www.w3.org/1999/xlink" x="0px" y="0px"
	 viewBox="0 0 48 48" style="enable-background:new 0 0 48 48;" xml:space="preserve">
<g id="lock-right">
	<path fill="rgb(179, 179, 179)" d="M36.4,24.4c-0.7-0.4-2.9-1.1-5.6-1.7c-1.2,2-2.8,3.8-4.6,5.5c0.2,0.4,0.3,0.8,0.3,1.2c0,0.8-0.4,1.5-1,2v4
		c0,0.8-0.7,1.5-1.5,1.5s-1.5-0.7-1.5-1.5v-3.6c-2.5,2.5-4.9,5.3-6.7,9.1c2.4,0.6,5.5,1,8.2,1c5,0,11.2-1.6,12.4-2.4
		c0.4-0.3,0.6-0.7,0.6-1.2V32v-6.4C37,25.2,36.8,24.7,36.4,24.4z"/>
	<path fill="rgb(179, 179, 179)" d="M31.3,21.9c1.5,0.3,2.8,0.7,3.7,0.9V18c0-2.5-0.9-4.9-2.3-6.7C33.5,15.7,32.8,19,31.3,21.9z"/>
</g>
<g id="lock-left">
	<path d="M22,31c-0.3-0.4-0.5-0.9-0.5-1.5c0-1.4,1.1-2.5,2.5-2.5c0.6,0,1.1,0.2,1.6,0.5c1.6-1.6,3.1-3.2,4.3-5
		C27.9,22.2,25.9,22,24,22c-5,0-11.2,1.6-12.4,2.4c-0.4,0.3-0.6,0.7-0.6,1.2V32v6.4c0,0.5,0.2,0.9,0.6,1.2c0.5,0.3,1.6,0.7,3.2,1.1
		C16.7,36.7,19.4,33.6,22,31z"/>
	<path d="M17,18c0-3.9,3.1-7,7-7s7,3.1,7,7v2.3c1.2-2.8,1.5-6,0.5-10.4C29.5,8.1,26.9,7,24,7c-6.1,0-11,4.9-11,11v4.8
		c1-0.4,2.4-0.7,4-1V18z"/>
</g>
</svg>
