<?xml version="1.0" standalone="no"?>
<!DOCTYPE svg PUBLIC "-//W3C//DTD SVG 20010904//EN"
 "http://www.w3.org/TR/2001/REC-SVG-20010904/DTD/svg10.dtd">
<svg version="1.0" xmlns="http://www.w3.org/2000/svg"
 width="512.000000pt" height="512.000000pt" viewBox="0 0 512.000000 512.000000"
 preserveAspectRatio="xMidYMid meet">
<metadata>
Created by potrace 1.14, written by Peter Selinger 2001-2017
</metadata>
<g transform="translate(0.000000,512.000000) scale(0.100000,-0.100000)"
fill="#000000" stroke="none">
<path d="M2231 4248 c-225 -39 -441 -128 -620 -256 -93 -66 -311 -265 -311
-284 0 -9 369 -408 377 -408 3 0 43 35 91 78 188 168 344 254 537 298 106 24
313 24 405 1 245 -64 389 -234 390 -459 0 -349 -282 -541 -857 -584 -54 -4
-97 -12 -103 -19 -7 -9 5 -136 40 -419 27 -224 50 -411 50 -416 0 -6 82 -10
209 -10 l209 0 6 38 c3 20 15 113 27 207 11 93 21 170 22 171 1 0 40 8 87 18
127 26 309 89 418 146 358 184 538 504 519 924 -24 533 -372 895 -942 981
-146 22 -410 19 -554 -7z"/>
<path d="M2080 990 l0 -350 345 0 345 0 0 350 0 350 -345 0 -345 0 0 -350z"/>
</g>
</svg>
