<?xml version="1.0" encoding="utf-8"?>
<!-- Generator: Adobe Illustrator 18.0.0, SVG Export Plug-In . SVG Version: 6.00 Build 0)  -->
<!DOCTYPE svg PUBLIC "-//W3C//DTD SVG 1.1//EN" "http://www.w3.org/Graphics/SVG/1.1/DTD/svg11.dtd">
<svg version="1.1" xmlns="http://www.w3.org/2000/svg" xmlns:xlink="http://www.w3.org/1999/xlink" x="0px" y="0px"
	 viewBox="0 0 96 96" enable-background="new 0 0 96 96" xml:space="preserve">
<g id="guides_1_" display="none">
	<path display="inline" opacity="0.5" d="M96,0L96,0L96,0H0v0v12v72v11.9V96h96l0,0l0,0V0z M12,12h72v72H12V12z"/>
</g>
<g id="Слой_8__x28_копия2_x29_" display="none">
	<path display="inline" d="M48,12c-16.3,0-27,8.3-27,8.3c0-0.3,0,20.9,0,31.3C21,65.3,48,85,48,85s27-19.7,27-33.4
		c0-10.4,0-31.5,0-31.3C75,20.3,64.7,12,48,12z"/>
</g>
<g id="Слой_8__x28_копия_x29_">
</g>
<g id="Слой_8">
	<g>
		<path d="M77.5,17.2C77,16.9,65.9,8,48,8c-17.4,0-29,8.8-29.5,9.2L17,18.4v33.2c0,15.2,25.7,34.5,28.6,36.6L48,90l2.4-1.7
			C53.3,86.1,79,66.9,79,51.6V18.4L77.5,17.2z M77,51.6c0,14.5-26.7,34.2-27.8,35L48,87.5l-1.2-0.9C45.7,85.8,19,66.1,19,51.6V19.4
			l0.8-0.6C20.2,18.4,31.3,10,48,10c17.2,0,27.8,8.4,28.3,8.8l0.7,0.6V51.6z"/>
	</g>
</g>
<g id="Слой_6__x28_копия2_x29_" display="none">
	<path display="inline" fill="none" stroke="#737373" stroke-width="4" stroke-miterlimit="10" d="M39,48v-7c0-5,4-9,9-9s9,4,9,9v7"
		/>
</g>
<g id="Слой_7__x28_копия_x29_" display="none">
	<g display="inline">
		<path fill="#737373" d="M60.4,47.4C59.2,46.6,53,45,48,45s-11.2,1.6-12.4,2.4c-0.4,0.3-0.6,0.7-0.6,1.2V55v6.4
			c0,0.5,0.2,0.9,0.6,1.2C36.8,63.4,43,65,48,65s11.2-1.6,12.4-2.4c0.4-0.3,0.6-0.7,0.6-1.2V55v-6.4C61,48.2,60.8,47.7,60.4,47.4z"
			/>
		<path fill="#D7D7D7" d="M51,53c0-1.7-1.3-3-3-3s-3,1.3-3,3c0,0.9,0.4,1.7,1,2.2V60c0,1.1,0.9,2,2,2c1.1,0,2-0.9,2-2v-4.8
			C50.6,54.7,51,53.9,51,53z"/>
	</g>
</g>
<g id="Слой_7__x28_копия2_x29_">
	<g>
		<path d="M60.4,43.4C59.2,42.6,53,41,48,41s-11.2,1.6-12.4,2.4c-0.4,0.3-0.6,0.7-0.6,1.2V51v6.4c0,0.5,0.2,0.9,0.6,1.2
			C36.8,59.4,43,61,48,61s11.2-1.6,12.4-2.4c0.4-0.3,0.6-0.7,0.6-1.2V51v-6.4C61,44.2,60.8,43.7,60.4,43.4z M50,51.2V56
			c0,1.1-0.9,2-2,2c-1.1,0-2-0.9-2-2v-4.8c-0.6-0.5-1-1.3-1-2.2c0-1.7,1.3-3,3-3s3,1.3,3,3C51,49.9,50.6,50.7,50,51.2z"/>
		<path d="M48,30c3.9,0,7,3.1,7,7v3.8c1.6,0.3,3,0.7,4,1V37c0-6.1-4.9-11-11-11c-4.2,0-8,2.3-9.9,6.1l3.6,1.8
			C42.9,31.5,45.3,30,48,30z"/>
	</g>
</g>
<g id="Слой_7" display="none">
	<path display="inline" d="M41,44.8V41c0-3.9,3.1-7,7-7c3.9,0,7,3.1,7,7v3.8c1.6,0.3,3,0.7,4,1V41c0-6.1-4.9-11-11-11s-11,4.9-11,11
		v4.8C38,45.5,39.4,45.1,41,44.8z"/>
	<path display="inline" d="M60.4,47.4C59.2,46.6,53,45,48,45s-11.2,1.6-12.4,2.4c-0.4,0.3-0.6,0.7-0.6,1.2V55v6.4
		c0,0.5,0.2,0.9,0.6,1.2C36.8,63.4,43,65,48,65s11.2-1.6,12.4-2.4c0.4-0.3,0.6-0.7,0.6-1.2V55v-6.4C61,48.2,60.8,47.7,60.4,47.4z
		 M50,55.2V60c0,1.1-0.9,2-2,2c-1.1,0-2-0.9-2-2v-4.8c-0.6-0.5-1-1.3-1-2.2c0-1.7,1.3-3,3-3s3,1.3,3,3C51,53.9,50.6,54.7,50,55.2z"
		/>
</g>
<g id="Слой_4" display="none">
	<path fill="none" stroke="#000000" stroke-width="2" stroke-linecap="round" stroke-linejoin="round" stroke-miterlimit="10" d="
		M38,40c0-5,4.5-9,10-9s10,4,10,9v4"/>
	<g display="inline">
		<path d="M48,30.1c-5.8,0-10.5,4.7-10.5,10.5v6c0,0.1-0.1,0.2-0.2,0.2c-0.6,0.2-1,0.4-1.5,0.5C35.4,47.5,35,48,35,48.6v13.8
			c0,0.5,0.4,1.1,0.9,1.3c3.9,1.5,8,2.3,12.1,2.3c4.2,0,8.2-0.8,12.1-2.3c0.5-0.2,0.9-0.8,0.9-1.3V48.6c0-0.5-0.4-1.1-0.9-1.3
			c-0.4-0.2-0.9-0.3-1.5-0.5c-0.1,0-0.1-0.1-0.1-0.2v-6C58.5,34.8,53.8,30.1,48,30.1L48,30.1z M45.1,52.8c0-1.6,1.3-2.9,2.9-2.9
			c1.6,0,2.9,1.3,2.9,2.9c0,1-0.6,1.9-1.4,2.4v4.7c0,0.8-0.6,1.4-1.4,1.4c-0.8,0-1.4-0.6-1.4-1.4v-4.7
			C45.7,54.7,45.1,53.8,45.1,52.8L45.1,52.8z M54.9,40.6v5.2C52.6,45.3,50.3,45,48,45c-2.3,0-4.6,0.2-6.9,0.7v-5.2
			c0-3.8,3.1-6.9,6.9-6.9C51.8,33.7,54.9,36.8,54.9,40.6L54.9,40.6z M54.9,40.6"/>
	</g>
	<circle fill="none" stroke="#FFFFFF" stroke-miterlimit="10" cx="48" cy="78" r="33.5"/>
</g>
</svg>
