<?xml version="1.0" encoding="utf-8"?>
<!-- Generator: Adobe Illustrator 18.0.0, SVG Export Plug-In . SVG Version: 6.00 Build 0)  -->
<!DOCTYPE svg PUBLIC "-//W3C//DTD SVG 1.1//EN" "http://www.w3.org/Graphics/SVG/1.1/DTD/svg11.dtd">
<svg version="1.1" xmlns="http://www.w3.org/2000/svg" xmlns:xlink="http://www.w3.org/1999/xlink" x="0px" y="0px" fill="#339968"
	 viewBox="0 0 48 48" enable-background="new 0 0 48 48" xml:space="preserve">
<g id="guides_1_" display="none">
	<g id="_x33_px_margins" display="inline" opacity="0.2">
		<path fill="#3EA3FF" d="M42,6V42H6V6H42 M48,0H0V48H48V0L48,0z"/>
	</g>
</g>
<g id="lock-open">
	<g>
		<path d="M24,11c3.9,0,7,3.1,7,7v3.8c1.6,0.3,3,0.7,4,1V18c0-6.1-4.9-11-11-11c-4.2,0-8,2.3-9.9,6.1l3.6,1.8
			C18.9,12.5,21.3,11,24,11z"/>
		<path d="M36.4,24.4C35.2,23.6,29,22,24,22s-11.2,1.6-12.4,2.4c-0.4,0.3-0.6,0.7-0.6,1.2V32v6.4c0,0.5,0.2,0.9,0.6,1.2
			C12.8,40.4,19,42,24,42s11.2-1.6,12.4-2.4c0.4-0.3,0.6-0.7,0.6-1.2V32v-6.4C37,25.2,36.8,24.7,36.4,24.4z M25.5,31.5v4
			c0,0.8-0.7,1.5-1.5,1.5s-1.5-0.7-1.5-1.5v-4c-0.6-0.5-1-1.2-1-2c0-1.4,1.1-2.5,2.5-2.5c1.4,0,2.5,1.1,2.5,2.5
			C26.5,30.3,26.1,31,25.5,31.5z"/>
	</g>
</g>
</svg>
