<?xml version="1.0" encoding="utf-8"?>
<!-- Generator: Adobe Illustrator 18.0.0, SVG Export Plug-In . SVG Version: 6.00 Build 0)  -->
<!DOCTYPE svg PUBLIC "-//W3C//DTD SVG 1.1//EN" "http://www.w3.org/Graphics/SVG/1.1/DTD/svg11.dtd">
<svg version="1.1" xmlns="http://www.w3.org/2000/svg" xmlns:xlink="http://www.w3.org/1999/xlink" x="0px" y="0px"
	 viewBox="0 0 48 48" enable-background="new 0 0 48 48" xml:space="preserve">
<g id="guides_1_" display="none">
	<g id="_x33_px_margins" display="inline" opacity="0.2">
		<path fill="#3EA3FF" d="M42,6V42H6V6H42 M48,0H0V48H48V0L48,0z"/>
	</g>
</g>
<g id="user">
	<g>
		<path d="M24,24c5,0,9-4,9-9c0-5-4-9-9-9c-5,0-9,4-9,9C15,20,19.1,24,24,24z"/>
		<path d="M38,34c-0.8-5-2.8-8.2-6.3-10.2l-0.3-0.1c-0.2-0.1-0.5-0.1-0.6,0.1l-0.2,0.2c-1.5,1.6-4.1,2.6-6.6,2.6
			c-2.1,0-5-0.8-6.7-2.6l-0.2-0.2c-0.2-0.2-0.4-0.2-0.6-0.1l-0.3,0.1c-3.5,2-5.4,5.3-6.2,10.2l0,0.2c0,0.1,0,0.3,0.1,0.4l0.1,0.1
			c3.7,4.4,8.5,6.8,13.8,6.8c5.2,0,10.1-2.4,13.8-6.8l0.1-0.1c0.1-0.1,0.1-0.3,0.1-0.4L38,34z"/>
	</g>
</g>
</svg>
