<?xml version="1.0" encoding="utf-8"?>
<!-- Generator: Adobe Illustrator 22.0.1, SVG Export Plug-In . SVG Version: 6.00 Build 0)  -->
<svg version="1.1" id="Nastroyki" xmlns="http://www.w3.org/2000/svg" xmlns:xlink="http://www.w3.org/1999/xlink" x="0px" y="0px"
	 viewBox="0 0 48 48" style="enable-background:new 0 0 48 48;" xml:space="preserve">
<g>
	<g>
		<path d="M43.8,28.6c-2.5-4.4-1-10,3.4-12.5l-4.7-8.2c-1.3,0.8-2.9,1.2-4.6,1.2c-5,0-9.1-4.1-9.1-9.2h-9.4c0,1.6-0.4,3.2-1.2,4.6
			C15.6,9,10,10.5,5.6,7.9l-4.7,8.2c1.4,0.8,2.5,1.9,3.4,3.4c2.5,4.4,1,9.9-3.4,12.5l4.7,8.2c1.3-0.8,2.9-1.2,4.6-1.2
			c5,0,9.1,4.1,9.1,9.1h9.4c0-1.6,0.4-3.1,1.2-4.6c2.5-4.4,8.1-5.8,12.5-3.3l4.7-8.2C45.8,31.2,44.6,30,43.8,28.6L43.8,28.6z
			 M24,33.7c-5.4,0-9.7-4.4-9.7-9.7c0-5.4,4.4-9.7,9.7-9.7c5.4,0,9.7,4.4,9.7,9.7C33.7,29.4,29.4,33.7,24,33.7L24,33.7z M24,33.7"/>
	</g>
	<circle cx="24" cy="24" r="5.5"/>
</g>
</svg>
